HIERARCHY
ROOT Pelvis
{
	OFFSET 0.000000 0.941512 0.000000
	CHANNELS 6 Xposition Yposition Zposition Zrotation Yrotation Xrotation 
	JOINT Pelvis_L_Hip
	{
		OFFSET 0.000000 0.000000 0.000000
		CHANNELS 3 Zrotation Yrotation Xrotation
		JOINT L_Hip
		{
			OFFSET 0.062321 -0.080322 -0.016990
			CHANNELS 3 Zrotation Yrotation Xrotation
			JOINT L_Knee
			{
				OFFSET 0.093051 -0.381305 -0.029784
				CHANNELS 3 Zrotation Yrotation Xrotation
				JOINT L_Ankle
				{
					OFFSET -0.010371 -0.431000 -0.033614
					CHANNELS 3 Zrotation Yrotation Xrotation
					End Site #name: L_Foot
					{
						OFFSET 0.069299 -0.038670 0.119418
					}
				}
			}
		}
	}
	JOINT Pelvis_R_Hip
	{
		OFFSET 0.000000 0.000000 0.000000
		CHANNELS 3 Zrotation Yrotation Xrotation
		JOINT R_Hip
		{
			OFFSET -0.055334 -0.094904 -0.002373
			CHANNELS 3 Zrotation Yrotation Xrotation
			JOINT R_Knee
			{
				OFFSET -0.064207 -0.384370 -0.019592
				CHANNELS 3 Zrotation Yrotation Xrotation
				JOINT R_Ankle
				{
					OFFSET 0.025418 -0.419734 -0.065953
					CHANNELS 3 Zrotation Yrotation Xrotation
					End Site #name: R_Foot
					{
						OFFSET -0.057233 -0.039888 0.132134
					}
				}
			}
		}
	}
	JOINT Pelvis_Spine1
	{
		OFFSET 0.000000 0.000000 0.000000
		CHANNELS 3 Zrotation Yrotation Xrotation
		JOINT Spine1
		{
			OFFSET -0.005562 0.124093 -0.043360
			CHANNELS 3 Zrotation Yrotation Xrotation
			JOINT Spine2
			{
				OFFSET 0.012244 0.139499 0.029894
				CHANNELS 3 Zrotation Yrotation Xrotation
				JOINT Spine3
				{
					OFFSET -0.002556 0.056561 0.009225
					CHANNELS 3 Zrotation Yrotation Xrotation
					JOINT Spine3_Neck
					{
						OFFSET 0.000000 0.000000 0.000000
						CHANNELS 3 Zrotation Yrotation Xrotation
						JOINT Neck
						{
							OFFSET -0.005205 0.217920 -0.024551
							CHANNELS 3 Zrotation Yrotation Xrotation
							End Site #name: Head
							{
								OFFSET 0.002365 0.091850 0.046637
							}
						}
					}
					JOINT Spine3_L_Collar
					{
						OFFSET 0.000000 0.000000 0.000000
						CHANNELS 3 Zrotation Yrotation Xrotation
						JOINT L_Collar
						{
							OFFSET 0.072225 0.116603 -0.009480
							CHANNELS 3 Zrotation Yrotation Xrotation
							JOINT L_Shoulder
							{
								OFFSET 0.115937 -0.058643 -0.021018
								CHANNELS 3 Zrotation Yrotation Xrotation
								JOINT L_Elbow
								{
									OFFSET 0.021994 -0.254722 -0.024492
									CHANNELS 3 Zrotation Yrotation Xrotation
									End Site #name: L_Wrist
									{
										OFFSET 0.048810 -0.240214 0.103329
									}
								}
							}
						}
					}
					JOINT Spine3_R_Collar
					{
						OFFSET 0.000000 0.000000 0.000000
						CHANNELS 3 Zrotation Yrotation Xrotation
						JOINT R_Collar
						{
							OFFSET -0.073372 0.120704 -0.024611
							CHANNELS 3 Zrotation Yrotation Xrotation
							JOINT R_Shoulder
							{
								OFFSET -0.108089 -0.054969 -0.020504
								CHANNELS 3 Zrotation Yrotation Xrotation
								JOINT R_Elbow
								{
									OFFSET -0.033684 -0.260739 0.009889
									CHANNELS 3 Zrotation Yrotation Xrotation
									End Site #name: R_Wrist
									{
										OFFSET -0.067980 -0.232763 0.118463
									}
								}
							}
						}
					}
				}
			}
		}
	}
}
MOTION
Frames: 7
Frame Time: 0.041667
0.035315 1.034290 1.439204 -19.825651 -40.343223 -92.780056 0.000000 0.000000 0.000000 -91.427063 -5.746731 -69.391955 30.924717 3.643501 -11.320753 -5.897430 67.458587 108.875435 0.000000 0.000000 0.000000 -78.319164 19.257893 -63.142721 -10.161813 0.310626 -20.915269 -22.839685 -23.992449 117.526379 0.000000 0.000000 0.000000 -82.073910 22.051364 -86.989588 -2.764470 0.259395 -4.068525 -39.051314 7.977208 51.341527 0.000000 0.000000 0.000000 24.407676 0.828744 -39.007706 0.000000 0.000000 0.000000 122.351281 -33.316268 91.414542 29.269862 -2.969628 16.875545 -7.698953 -2.298019 2.850672 0.000000 0.000000 0.000000 -82.753746 -28.766197 84.941951 -39.456948 -10.579679 -35.513564 -24.241275 -13.396860 21.774117 
0.033290 1.032873 1.431058 -93.501645 24.871726 40.694501 0.000000 0.000000 0.000000 -80.512364 -13.155915 22.900817 5.474424 -0.830121 -17.837474 22.871081 44.137342 85.734530 0.000000 0.000000 0.000000 -53.733784 -18.115226 10.614958 -27.866846 -1.333401 -9.530065 43.503551 -59.111783 95.087412 0.000000 0.000000 0.000000 -71.470443 -16.477191 1.171252 -13.865317 1.219240 -3.251245 19.798999 -24.860894 60.703484 0.000000 0.000000 0.000000 3.333869 -4.605124 -58.802144 0.000000 0.000000 0.000000 102.601575 20.216501 94.038724 40.711707 0.093240 -19.335353 15.925520 7.390084 14.699203 0.000000 0.000000 0.000000 -115.919170 8.387856 120.998505 -14.689315 -1.684039 -8.501203 -14.688840 -6.581255 2.336736 
0.030826 1.031517 1.422033 -110.867677 62.341009 56.023735 0.000000 0.000000 0.000000 -29.196859 -15.086675 10.891767 -3.681884 -1.172988 -10.308409 8.715724 42.816503 53.535021 0.000000 0.000000 0.000000 -9.253693 -16.338519 -2.413046 -27.810263 0.001826 -1.881778 74.650102 -36.115738 67.885121 0.000000 0.000000 0.000000 -24.727858 -13.272149 -4.100096 -16.656663 1.939797 1.300604 52.821334 -11.093220 29.379875 0.000000 0.000000 0.000000 -15.739167 -7.784702 -49.976907 0.000000 0.000000 0.000000 67.929391 20.834757 68.352205 57.875701 6.322481 -25.128983 21.197392 9.875152 28.772024 0.000000 0.000000 0.000000 -107.058415 48.893287 105.721282 -14.285034 -2.547140 35.414568 2.634868 4.561861 -6.690560 
0.028174 1.030490 1.412606 -112.687602 64.615565 56.122494 0.000000 0.000000 0.000000 -21.119432 -11.953283 10.252474 -7.133925 -1.105613 -9.275503 5.064252 42.062313 48.524633 0.000000 0.000000 0.000000 -8.727337 -14.167516 -4.427231 -27.641905 -0.057927 -1.254048 77.329510 -39.936822 64.327254 0.000000 0.000000 0.000000 -20.359513 -10.501716 -5.448734 -17.666536 2.061425 2.198231 55.103221 -7.226902 25.806356 0.000000 0.000000 0.000000 -18.686345 -7.930524 -48.095374 0.000000 0.000000 0.000000 64.623499 17.874299 64.688123 59.650749 6.538322 -24.258761 21.258723 10.029884 30.055477 0.000000 0.000000 0.000000 -109.958228 54.889463 92.032746 -18.626232 0.299397 45.557139 7.928909 7.564130 -6.048714 
0.025751 1.030114 1.403751 -110.234339 68.834197 61.564554 0.000000 0.000000 0.000000 -8.515124 -8.371442 8.587725 -11.474219 -0.520484 -6.807475 0.584714 38.193188 42.884540 0.000000 0.000000 0.000000 -8.669685 -9.846129 -6.987195 -26.667429 0.105887 0.148000 82.019785 -36.417532 58.923822 0.000000 0.000000 0.000000 -15.638039 -5.788791 -7.268019 -18.237341 2.289783 3.969772 57.249166 -0.029990 19.013134 0.000000 0.000000 0.000000 -22.496459 -7.031770 -43.553150 0.000000 0.000000 0.000000 60.406385 11.298715 58.465968 62.828420 6.748977 -22.312563 21.273765 10.370487 32.688368 0.000000 0.000000 0.000000 -133.214252 58.462471 33.103572 -35.658009 18.864283 64.273958 24.872935 13.533732 3.746621 
0.023757 1.030344 1.394204 -111.343058 69.260606 61.629353 0.000000 0.000000 0.000000 0.581456 -10.966390 11.655190 -12.960165 0.329445 -8.863642 2.550101 37.453719 43.784000 0.000000 0.000000 0.000000 -12.409111 -7.979756 -9.223715 -25.658190 -0.034561 0.078987 90.715088 -43.685415 49.220911 0.000000 0.000000 0.000000 -14.889207 -4.427615 -8.047209 -18.437378 2.306401 4.244565 57.250757 0.586355 18.025079 0.000000 0.000000 0.000000 -23.774791 -7.782054 -43.611128 0.000000 0.000000 0.000000 60.201156 10.145100 57.652517 63.162342 5.536844 -20.297412 21.391189 10.505863 33.285290 0.000000 0.000000 0.000000 -133.618200 57.426933 29.566051 -38.323437 20.363065 62.729044 27.341340 13.546897 6.446275 
0.021201 1.029964 1.382618 -106.677859 71.992989 67.968421 0.000000 0.000000 0.000000 12.020809 -16.724701 14.341880 -13.361209 1.680363 -11.565539 7.207056 37.611715 46.352868 0.000000 0.000000 0.000000 -15.714046 -5.034528 -10.923545 -24.969609 0.025219 1.274923 89.644454 -25.802178 48.346113 0.000000 0.000000 0.000000 -12.900385 -1.532201 -8.036356 -18.222916 2.463538 5.191961 57.236321 6.856419 12.980868 0.000000 0.000000 0.000000 -26.999953 -6.213743 -39.090700 0.000000 0.000000 0.000000 58.685606 4.011636 52.301327 64.541140 4.322796 -17.381344 21.533871 10.925530 35.897013 0.000000 0.000000 0.000000 -140.248337 45.058958 -11.580128 -67.230873 36.586237 44.304585 38.333306 6.881939 28.587289 
